<svg id="Layer_1" data-name="Layer 1" xmlns="http://www.w3.org/2000/svg" viewBox="0 0 256 256"><defs><style>.cls-1{fill:#1b75bc;}.cls-2{fill:#fce2ea;}</style></defs><title>logo</title><path class="cls-1" d="M0,0H189.68A66.32,66.32,0,0,1,256,66.32V256a0,0,0,0,1,0,0H66.32A66.32,66.32,0,0,1,0,189.68V0A0,0,0,0,1,0,0Z"/><path class="cls-2" d="M91.14,86H159.2q24.41,0,43.13,9.31a69.84,69.84,0,0,1,29.11,26.22q10.38,16.9,10.38,39.38t-10.38,39.38a69.71,69.71,0,0,1-29.11,26.22q-18.74,9.32-43.13,9.31H91.14Zm66.35,121.36q22.47,0,35.85-12.52t13.38-33.93q0-21.41-13.38-33.92t-35.85-12.52H125.81v92.89Z" transform="translate(0 0)"/></svg>