<svg viewBox="0 0 32 32" xmlns="http://www.w3.org/2000/svg">
<path d="M10.1975 4L18.0496 7.02144C18.4357 7.17002 18.6905 7.54102 18.6905 7.95473V24.5842H22.0476V17.2189H24.0476L24.0476 24.5842C24.0476 25.6888 23.1522 26.5842 22.0476 26.5842H18.6905V30.396C18.6905 31.0979 17.9864 31.5814 17.3313 31.3293L5.64087 26.8308C5.25476 26.6823 5 26.3113 5 25.8976V24.5842V3.45628V3C5 2.44772 5.44772 2 6 2H22.0476C23.1522 2 24.0476 2.89543 24.0476 4L24.0476 12.5361H22.0476V4H10.1975ZM20.4762 13.7068H25.2381V11.3654L30 14.8775L25.2381 18.3895V16.0482H20.4762V13.7068Z" fill="currentColor"/>
</svg>
